<svg width="22" height="22" viewBox="0 0 22 22" fill="none" xmlns="http://www.w3.org/2000/svg">
<path fill-rule="evenodd" clip-rule="evenodd" d="M17.875 6.87476C17.875 3.07778 14.797 -0.000244141 11 -0.000244141C7.20302 -0.000244141 4.125 3.07778 4.125 6.87476C4.125 10.6717 7.20302 13.7498 11 13.7498C14.797 13.7498 17.875 10.6717 17.875 6.87476ZM15.8112 13.5776L18.8754 14.3436C20.7118 14.8027 22 16.4526 22 18.3455V19.9373C22 21.0764 21.0766 21.9998 19.9375 21.9998H2.0625C0.923398 21.9998 0 21.0764 0 19.9373V18.3455C0 16.4526 1.28825 14.8027 3.12456 14.3436L6.18879 13.5776C8.68966 15.3764 12.5919 15.8932 15.8112 13.5776Z" fill="#ADB0B2"/>
</svg>
